<?xml version="1.0" encoding="UTF-8"?>
<svg version="1.1" xmlns="http://www.w3.org/2000/svg" width="339" height="122">
<path d="M0 0 C111.87 0 223.74 0 339 0 C339 40.26 339 80.52 339 122 C227.13 122 115.26 122 0 122 C0 81.74 0 41.48 0 0 Z " fill="#FDFDFD" transform="translate(0,0)"/>
<path d="M0 0 C1.46870092 -0.00083068 2.93740173 -0.00329755 4.40609741 -0.00730896 C7.46730913 -0.01015062 10.52778254 0.00437532 13.58886719 0.03198242 C17.49378207 0.06612431 21.39738395 0.06001195 25.30236244 0.04131985 C28.3292213 0.03070644 31.35577937 0.03972566 34.38261032 0.05470467 C35.82177205 0.05985114 37.26096564 0.05944807 38.70012283 0.05315971 C47.93896013 0.02792707 54.71111198 0.30229521 61.890625 6.59375 C62.42945312 7.24472656 62.96828125 7.89570313 63.5234375 8.56640625 C64.07773438 9.21480469 64.63203125 9.86320312 65.203125 10.53125 C68.27477813 14.98929792 68.90346772 18.84014381 68.93896484 24.20410156 C68.95172455 25.51606506 68.96448425 26.82802856 68.97763062 28.17974854 C68.98068906 29.60550793 68.9829164 31.03126932 68.984375 32.45703125 C68.9908086 33.93048225 68.99753738 35.403932 69.00454712 36.87738037 C69.01650613 39.96401934 69.02022953 43.05054654 69.01904297 46.13720703 C69.01884021 50.07231674 69.04610332 54.00670079 69.08058739 57.94163895 C69.10294442 60.98562847 69.10687779 64.02944603 69.10582352 67.07350922 C69.10816775 68.52304324 69.11692426 69.97258286 69.13248825 71.42203522 C69.22266699 80.69016011 68.86560599 88.60687061 62.68359375 95.96875 C61.70712891 96.75958984 61.70712891 96.75958984 60.7109375 97.56640625 C60.06253906 98.11167969 59.41414063 98.65695313 58.74609375 99.21875 C54.27290005 102.22586904 50.43684211 102.88578172 45.08911133 102.93530273 C43.78037552 102.95129013 42.47163971 102.96727753 41.12324524 102.98374939 C39.70065707 102.99012847 38.27806417 102.99552046 36.85546875 103 C35.38441379 103.00897691 33.91335972 103.01809893 32.44230652 103.02735901 C29.35987131 103.04382666 26.27754439 103.05154451 23.19506836 103.05444336 C19.26888167 103.05981198 15.34373129 103.0974368 11.41783619 103.14318752 C8.37809151 103.17312057 5.33859093 103.18017047 2.29871178 103.18116951 C0.85277266 103.18534301 -0.59316916 103.19766049 -2.03896141 103.21868706 C-10.69199066 103.33447194 -18.13014175 102.91084672 -25.3515625 97.62890625 C-33.68445711 89.04497762 -33.66042572 80.15444797 -33.65234375 68.69921875 C-33.65623821 67.34072745 -33.6605744 65.98223734 -33.66532898 64.62374878 C-33.67276326 61.78444461 -33.67252055 58.94526485 -33.66723633 56.10595703 C-33.66144865 52.48936936 -33.67836878 48.87329499 -33.701581 45.25679207 C-33.7164014 42.45300378 -33.71717879 39.64933673 -33.71407127 36.8455162 C-33.71482589 34.87095631 -33.7286309 32.89641506 -33.74275208 30.92190552 C-33.69850567 22.26971326 -33.21841213 13.60372809 -26.95541382 6.96531677 C-18.80467705 0.17370818 -10.20750171 -0.10542142 0 0 Z " fill="#FCB042" transform="translate(43.3515625,8.37109375)"/>
<path d="M0 0 C3.96 0 7.92 0 12 0 C12.60328125 1.07378906 13.2065625 2.14757812 13.828125 3.25390625 C14.63540373 4.69011144 15.44269613 6.12630894 16.25 7.5625 C16.64574219 8.26697266 17.04148438 8.97144531 17.44921875 9.69726562 C17.84238281 10.39658203 18.23554688 11.09589844 18.640625 11.81640625 C19.03185547 12.5139502 19.42308594 13.21149414 19.82617188 13.93017578 C20.6027539 15.29953152 21.39039586 16.66267934 22.18945312 18.01904297 C25 22.79870756 25 22.79870756 25 25 C25.66 25 26.32 25 27 25 C27.22558594 24.20207031 27.45117188 23.40414062 27.68359375 22.58203125 C29.36663253 18.00236787 31.66063151 13.92389322 34.0625 9.6875 C34.75182617 8.45290039 34.75182617 8.45290039 35.45507812 7.19335938 C38.84527726 1.15472274 38.84527726 1.15472274 40 0 C43.96 0 47.92 0 52 0 C52.33 13.86 52.66 27.72 53 42 C56.72771855 32.29476068 56.72771855 32.29476068 60.44799805 22.58666992 C63.39930557 14.93270201 66.5137745 7.43167551 70 0 C73.96 0 77.92 0 82 0 C87.28 13.2 92.56 26.4 98 40 C98.66 40 99.32 40 100 40 C102.0100278 37.62674933 103.58740661 34.93656566 105.25 32.3125 C105.7346875 31.59126953 106.219375 30.87003906 106.71875 30.12695312 C107.16734375 29.42119141 107.6159375 28.71542969 108.078125 27.98828125 C108.70315918 27.02208862 108.70315918 27.02208862 109.34082031 26.03637695 C110.29390533 23.09205025 109.37601948 21.70882556 108 19 C107.16751349 17.51644529 106.29918487 16.05250443 105.3984375 14.609375 C104.90859375 13.81789063 104.41875 13.02640625 103.9140625 12.2109375 C103.40617187 11.39882813 102.89828125 10.58671875 102.375 9.75 C101.36004407 8.12099574 100.34691709 6.49085 99.3359375 4.859375 C98.88782715 4.14233398 98.4397168 3.42529297 97.97802734 2.68652344 C97 1 97 1 97 0 C101.59123663 -0.89412027 105.44588052 -1.18958502 110 0 C115.38837126 4.75159636 118.55005199 12.42911379 121 19 C121.66 19 122.32 19 123 19 C123.25136719 18.32582031 123.50273437 17.65164062 123.76171875 16.95703125 C126.23509874 11.05056863 129.09363818 4.32654876 134 0 C138.55411948 -1.18958502 142.40876337 -0.89412027 147 0 C146.13696335 1.52476947 145.27345077 3.04927127 144.40771484 4.57250977 C143.67561328 5.86094977 142.94547883 7.15050943 142.21728516 8.44116211 C140.23686154 11.92785447 138.16646878 15.2681169 135.875 18.5625 C135.25625 19.696875 134.6375 20.83125 134 22 C135.01692458 25.4458231 136.7071024 28.35542202 138.6015625 31.390625 C139.33632813 32.57785156 139.33632813 32.57785156 140.0859375 33.7890625 C140.59382812 34.60117187 141.10171875 35.41328125 141.625 36.25 C142.63995593 37.87900426 143.65308291 39.50915 144.6640625 41.140625 C145.11217285 41.85766602 145.5602832 42.57470703 146.02197266 43.31347656 C147 45 147 45 147 46 C142.28196729 47.2151372 138.66485512 47.541518 134 46 C129.61596115 41.34308498 126.81207521 35.358103 124.03051758 29.65234375 C123.52041138 28.83443359 123.52041138 28.83443359 123 28 C122.34 28 121.68 28 121 28 C120.0363645 29.72605937 120.0363645 29.72605937 119.171875 31.9375 C114.35990994 42.31358865 114.35990994 42.31358865 110 46 C102.94212212 48.25243187 95.20409968 47.11536279 88 46 C86.45051631 42.2102164 84.90229114 38.41992139 83.35522461 34.62915039 C82.82887689 33.33994699 82.30218695 32.05088325 81.77514648 30.76196289 C81.01716353 28.90808374 80.26051752 27.05365814 79.50390625 25.19921875 C79.04830322 24.08377686 78.5927002 22.96833496 78.12329102 21.8190918 C77.3589972 19.90096514 76.65294371 17.95883113 76 16 C74.45051631 19.7897836 72.90229114 23.58007861 71.35522461 27.37084961 C70.82887689 28.66005301 70.30218695 29.94911675 69.77514648 31.23803711 C69.01716353 33.09191626 68.26051752 34.94634186 67.50390625 36.80078125 C67.04830322 37.91622314 66.5927002 39.03166504 66.12329102 40.1809082 C65.3589972 42.09903486 64.65294371 44.04116887 64 46 C56.74 46 49.48 46 42 46 C41.505 33.13 41.505 33.13 41 20 C37.70593076 26.2352333 37.70593076 26.2352333 34.48046875 32.50585938 C31.16345654 38.50353856 31.16345654 38.50353856 28.01123047 39.84863281 C25.63481003 40.07495857 24.20451837 39.92170191 22 39 C19.77665813 36.88310268 18.50320813 34.47120657 17.125 31.75 C16.74859375 31.06808594 16.3721875 30.38617188 15.984375 29.68359375 C14.23886753 26.49587622 12.62547657 23.25095314 11 20 C10.67 28.58 10.34 37.16 10 46 C6.7 46 3.4 46 0 46 C0 30.82 0 15.64 0 0 Z " fill="#243066" transform="translate(138,20)"/>
<path d="M0 0 C4.32740984 1.87626383 5.50088042 5.61088829 7.48828125 9.72265625 C7.9147998 10.56932861 8.34131836 11.41600098 8.78076172 12.28833008 C10.09493803 14.90470899 11.38533957 17.53200757 12.67578125 20.16015625 C13.48224804 21.76799569 14.29074577 23.37481854 15.1015625 24.98046875 C16.97673042 28.69873308 18.83199706 32.42623576 20.67578125 36.16015625 C23.67294877 32.49905921 25.74758556 28.45894439 27.92578125 24.28515625 C28.32055664 23.54007813 28.71533203 22.795 29.12207031 22.02734375 C31.04601559 18.37510864 32.90978507 14.71096744 34.64453125 10.96484375 C34.94713867 10.32144043 35.24974609 9.67803711 35.56152344 9.01513672 C36.3802448 7.25789238 37.1771188 5.49051724 37.97265625 3.72265625 C39.67578125 1.16015625 39.67578125 1.16015625 42.37890625 0.28515625 C43.136875 0.24390625 43.89484375 0.20265625 44.67578125 0.16015625 C47.7324411 5.07739166 49.69765981 9.2927692 48.67578125 15.16015625 C47.15453519 18.94552981 45.21057263 22.46822112 43.23828125 26.03515625 C42.13536987 28.07940184 41.03250573 30.12367291 39.9296875 32.16796875 C39.37941895 33.17633789 38.82915039 34.18470703 38.26220703 35.22363281 C36.80983263 37.91202297 35.40161326 40.61677821 34.015625 43.33984375 C33.41802368 44.50604248 33.41802368 44.50604248 32.80834961 45.69580078 C32.07281551 47.13388965 31.34282708 48.57483342 30.61938477 50.01904297 C28.78062514 53.56091967 27.24563971 56.23683291 23.67578125 58.16015625 C20.23828125 58.34765625 20.23828125 58.34765625 16.67578125 57.16015625 C14.5768471 54.46921503 13.21661958 52.1686646 11.67578125 49.16015625 C10.98367486 47.90447751 10.28808094 46.65071749 9.58984375 45.3984375 C8.84619054 44.04898377 8.10401241 42.69871614 7.36328125 41.34765625 C7.00113525 40.68942871 6.63898926 40.03120117 6.26586914 39.35302734 C3.67578125 34.50898409 3.67578125 34.50898409 3.67578125 31.16015625 C3.01578125 31.16015625 2.35578125 31.16015625 1.67578125 31.16015625 C1.42828125 32.41828125 1.18078125 33.67640625 0.92578125 34.97265625 C-2.29469075 49.28334521 -2.29469075 49.28334521 -6.296875 52.984375 C-8.32421875 54.16015625 -8.32421875 54.16015625 -10.88671875 54.09765625 C-13.94878568 52.9199382 -14.9157558 52.13357804 -16.32421875 49.16015625 C-15.8148903 43.53962501 -14.38510416 38.22599833 -12.890625 32.796875 C-12.5336277 31.48708427 -12.5336277 31.48708427 -12.16941833 30.15083313 C-11.66811787 28.31732074 -11.1645861 26.48441709 -10.65893555 24.65209961 C-9.88493645 21.84118352 -9.12281202 19.02721941 -8.36132812 16.21289062 C-7.87180997 14.42818881 -7.38159996 12.64367659 -6.890625 10.859375 C-6.66347305 10.01670578 -6.43632111 9.17403656 -6.20228577 8.30583191 C-3.96359861 0.27312192 -3.96359861 0.27312192 0 0 Z " fill="#FEFDFB" transform="translate(40.32421875,30.83984375)"/>
<path d="M0 0 C3.96 0 7.92 0 12 0 C13.33838733 2.45570175 14.67086232 4.91429916 16 7.375 C16.3815625 8.07367188 16.763125 8.77234375 17.15625 9.4921875 C20 14.7734375 20 14.7734375 20 17 C20.66 17 21.32 17 22 17 C22.20625 16.236875 22.4125 15.47375 22.625 14.6875 C24.5676699 9.47761254 27.27982809 4.84900211 30 0 C33.96 0 37.92 0 42 0 C40.56057651 5.02250454 38.35917747 9.04583913 35.625 13.4375 C34.45757923 15.33845015 33.292493 17.24041727 32.13867188 19.1496582 C31.40032696 20.34946869 30.63709861 21.53445059 29.84570312 22.69995117 C26.72959913 27.52026195 26.35041262 31.7733156 26.25 37.4375 C26.20552734 38.67790039 26.20552734 38.67790039 26.16015625 39.94335938 C26.0901549 41.96173177 26.04273299 43.98086623 26 46 C22.7 46 19.4 46 16 46 C16.10183594 45.00226563 16.20367187 44.00453125 16.30859375 42.9765625 C17.03187328 27.69161761 9.33989565 16.69574811 1.36108398 4.328125 C0 2 0 2 0 0 Z " fill="#243066" transform="translate(287,20)"/>
<path d="M0 0 C12.05357143 -0.66964286 12.05357143 -0.66964286 15.75 1.875 C18.49028025 5.68094479 18.80591212 8.01363674 18.53125 12.62109375 C17.7210396 16.24916824 15.9567594 17.86838276 13 20 C10 21 10 21 0 21 C0 14.07 0 7.14 0 0 Z " fill="#273368" transform="translate(225,81)"/>
<path d="M0 0 C1.98 0 3.96 0 6 0 C7.8984375 2.1875 7.8984375 2.1875 9.375 5 C9.87773437 5.928125 10.38046875 6.85625 10.8984375 7.8125 C11.26195312 8.534375 11.62546875 9.25625 12 10 C14.46446554 6.82449818 16.26637814 3.63235056 18 0 C19.98 0 21.96 0 24 0 C24 6.93 24 13.86 24 21 C22.68 21 21.36 21 20 21 C20 17.04 20 13.08 20 9 C19.34 9 18.68 9 18 9 C17.690625 9.94875 17.38125 10.8975 17.0625 11.875 C16 15 16 15 15 17 C13.35 17 11.7 17 10 17 C8.02 13.535 8.02 13.535 6 10 C5.67 13.63 5.34 17.26 5 21 C3.35 21 1.7 21 0 21 C0 14.07 0 7.14 0 0 Z " fill="#283369" transform="translate(269,81)"/>
<path d="M0 0 C1.2065625 0.0309375 1.2065625 0.0309375 2.4375 0.0625 C10.4375 15.49107143 10.4375 15.49107143 10.4375 21.0625 C8.7875 21.0625 7.1375 21.0625 5.4375 21.0625 C5.1075 20.4025 4.7775 19.7425 4.4375 19.0625 C1.4675 19.0625 -1.5025 19.0625 -4.5625 19.0625 C-4.8925 19.7225 -5.2225 20.3825 -5.5625 21.0625 C-7.2125 21.0625 -8.8625 21.0625 -10.5625 21.0625 C-9.864397 16.55973568 -8.27574524 12.50671829 -6.5625 8.3125 C-6.15257812 7.28576172 -6.15257812 7.28576172 -5.734375 6.23828125 C-3.24634164 0.07917906 -3.24634164 0.07917906 0 0 Z " fill="#2D386C" transform="translate(160.5625,80.9375)"/>
<path d="M0 0 C1.98 0 3.96 0 6 0 C7.3361044 3.31138908 8.668418 6.62429006 10 9.9375 C10.3815625 10.88302734 10.763125 11.82855469 11.15625 12.80273438 C11.5171875 13.70185547 11.878125 14.60097656 12.25 15.52734375 C12.58515625 16.35999756 12.9203125 17.19265137 13.265625 18.05053711 C14 20 14 20 14 21 C12.02 21 10.04 21 8 21 C8 20.01 8 19.02 8 18 C4.7 18 1.4 18 -2 18 C-2.33 18.99 -2.66 19.98 -3 21 C-4.65 21 -6.3 21 -8 21 C-5.72564796 13.81783567 -2.96415819 6.9241798 0 0 Z " fill="#2B376B" transform="translate(206,81)"/>
<path d="M0 0 C4.95 0 9.9 0 15 0 C15 1.32 15 2.64 15 4 C11.7 4 8.4 4 5 4 C5 5.32 5 6.64 5 8 C8.3 8 11.6 8 15 8 C15 9.32 15 10.64 15 12 C11.7 12 8.4 12 5 12 C5 13.65 5 15.3 5 17 C8.3 17 11.6 17 15 17 C15 18.32 15 19.64 15 21 C10.05 21 5.1 21 0 21 C0 14.07 0 7.14 0 0 Z " fill="#283369" transform="translate(249,81)"/>
<path d="M0 0 C2.5625 1.3125 2.5625 1.3125 4 3 C4 3.99 4 4.98 4 6 C2.0625 6.5625 2.0625 6.5625 0 7 C-0.33 6.67 -0.66 6.34 -1 6 C-4.5 5.83333333 -4.5 5.83333333 -8 6 C-9.40432936 7.17718985 -9.40432936 7.17718985 -9.125 10.5 C-9.40432936 13.82281015 -9.40432936 13.82281015 -8 15 C-4.16680771 15.17423601 -0.73164314 14.87803368 3 14 C3 18 3 18 1.4375 19.75 C-1.92420278 21.47395014 -4.26445727 21.39321502 -8 21 C-11.5386994 19.34860695 -12.81070153 18.28394771 -15 15 C-15.73965025 10.40728797 -15.60961194 6.97537911 -13.125 3 C-9.14707985 -0.74392485 -5.25179773 -0.53170954 0 0 Z " fill="#2C376B" transform="translate(190,81)"/>
<path d="M0 0 C3.16877626 5.86912473 6.29991348 14.33794343 5 21 C2.875 23.4375 2.875 23.4375 0 25 C-3.72706873 24.85384044 -5.34211707 24.65788293 -8 22 C-8.66106039 15.55466116 -7.42308376 11.88904403 -4 6.5 C-3.6184375 5.86835937 -3.236875 5.23671875 -2.84375 4.5859375 C-1.91148324 3.04769734 -0.95791489 1.52240046 0 0 Z " fill="#FEFBF6" transform="translate(93,60)"/>
<path d="M0 0 C2.3125 -0.3125 2.3125 -0.3125 5 0 C6.81883009 2.3832946 8 3.95818337 8 7 C8.66 7 9.32 7 10 7 C10.309375 6.030625 10.61875 5.06125 10.9375 4.0625 C12 1 12 1 13 0 C14.66617115 -0.04063832 16.33388095 -0.042721 18 0 C17.02137131 3.4252004 16.05846643 5.92027305 13.9375 8.8125 C11.47161904 12.86927191 11.20742876 16.33285287 11 21 C9.68 21 8.36 21 7 21 C6.95875 19.72125 6.9175 18.4425 6.875 17.125 C6.33832637 11.91513749 4.13965814 8.36998012 1.27734375 4.06640625 C0 2 0 2 0 0 Z " fill="#2A356A" transform="translate(299,81)"/>
<path d="M0 0 C6.36 -0.36 6.36 -0.36 9 1.125 C10.52732345 3.98873147 9.84278671 5.95300191 9 9 C7 11 7 11 3.375 11.125 C2.26125 11.08375 1.1475 11.0425 0 11 C0 7.37 0 3.74 0 0 Z " fill="#F0F1F4" transform="translate(229,86)"/>
<path d="M0 0 C0.66 0 1.32 0 2 0 C2.66 2.31 3.32 4.62 4 7 C2.02 7 0.04 7 -2 7 C-1.34 4.69 -0.68 2.38 0 0 Z " fill="#E6E7ED" transform="translate(208,87)"/>
<path d="M0 0 C3 3.625 3 3.625 3 7 C1.35 7 -0.3 7 -2 7 C-1.125 2.25 -1.125 2.25 0 0 Z " fill="#ECEDF1" transform="translate(160,87)"/>
</svg>
